<svg xmlns="http://www.w3.org/2000/svg" width="15.833" height="15" viewBox="0 0 15.833 15">
  <path id="ic_account_balance_wallet_24px" d="M18,15.5v.833A1.672,1.672,0,0,1,16.333,18H4.667A1.666,1.666,0,0,1,3,16.333V4.667A1.666,1.666,0,0,1,4.667,3H16.333A1.672,1.672,0,0,1,18,4.667V5.5H10.5A1.666,1.666,0,0,0,8.833,7.167v6.667A1.666,1.666,0,0,0,10.5,15.5Zm-7.5-1.667h8.333V7.167H10.5Zm3.333-2.083a1.25,1.25,0,1,1,1.25-1.25A1.248,1.248,0,0,1,13.833,11.75Z" transform="translate(-3 -3)" fill="#bcbcbc"/>
</svg>
