<svg xmlns="http://www.w3.org/2000/svg" width="25.757" height="48" viewBox="0 0 25.757 48">
  <path id="ic_attach_money_24px" d="M20.185,24.067c-5.743-1.573-7.59-3.2-7.59-5.733,0-2.907,2.555-4.933,6.831-4.933,4.5,0,6.174,2.267,6.325,5.6h5.592A10.5,10.5,0,0,0,23.221,8.84V3h-7.59V8.76c-4.909,1.12-8.856,4.48-8.856,9.627,0,6.16,4.833,9.227,11.892,11.013,6.325,1.6,7.59,3.947,7.59,6.427,0,1.84-1.24,4.773-6.831,4.773-5.212,0-7.262-2.453-7.54-5.6H6.32c.3,5.84,4.453,9.12,9.311,10.213V51h7.59V45.267c4.934-.987,8.856-4,8.856-9.467C32.077,28.227,25.929,25.64,20.185,24.067Z" transform="translate(-6.32 -3)" fill="#999"/>
</svg>
